<?xml version="1.0" encoding="UTF-8"?>
<svg version="1.1" viewBox="0 0 2048 1161" width="987" height="560" xmlns="http://www.w3.org/2000/svg">
<path transform="translate(0)" d="m0 0h2048v1161h-2048z" fill="#FEFEFE"/>
<path transform="translate(0)" d="m0 0h2048v1161h-2048zm42 23-13 1-3 1-1 3-1 189v330l1 190 3 1h1992l1-1v-710l-2-4z" fill="#EB1A2B"/>
<path transform="translate(267,63)" d="m0 0h30l1 1v79l-1 103-1 50-1 28 3-3 10-26 12-25 14-28 10-19 18-35 14-27 23-45 12-22 13-26 3-4 9-1h215l-2 5-12 19-17 28-13 22-13 21-12 20-13 21-15 25-17 28-12 19-16 27-17 28-11 18-5 10 2 6 11 17 28 44 12 19 11 17 14 22 16 25 24 38 11 17 12 19 11 17 14 22 25 40 2 5h-238l-10-19-14-26-12-22-15-28-16-30-12-22-14-26-12-22-14-24-15-31-2-1 2 80 1 97v73l-1 1h-198v-598z" fill="#1F9E57"/>
<path transform="translate(707,97)" d="m0 0h161l29 3 18 4 15 5 20 9 15 10 10 9 11 12 9 14 8 16 5 15 4 20 2 16v37l-4 23-6 21-8 16-9 13-9 10-10 9 10 4 11 4 12 6 13 10 8 7 11 14 9 14 8 18 7 22 3 16 1 11v35l-2 18-5 19-7 19-8 15-12 16-10 11-14 11-14 9-16 8-19 7-21 5-29 4-19 1h-177l-1-1z" fill="#998A82"/>
<path transform="translate(1684,82)" d="m0 0h48l26 3 21 5 26 9 18 8 17 9 12 8 14 10 15 14 11 10 7 8 12 15 12 18 9 16v3l-29 15-22 12-24 13-20 11-3 1-8-16-7-12-8-10-9-10-10-10-15-11-23-12-13-4-25-4h-23l-24 4-16 5-16 8-14 9-13 11-8 8-11 14-11 17-11 21-9 24-8 32-4 27v38l3 24 6 26 5 17 8 19 8 16 9 15 13 16 12 12 17 13 19 10 21 7 18 4 8 1h18l15-2 21-6 14-6 16-10 13-11 6-5 9-11 10-15 8-16 5-16 5-28-119-1-1-91h244v35l-2 30-4 28-5 23-8 28-8 21-12 25-9 16-12 17-11 14-13 14-8 7-13 11-13 9-13 8-16 8-19 8-20 6-24 5-30 4h-31l-31-4-23-5-24-7-26-11-14-8-11-7-14-10-13-11-10-9-13-13-9-11-8-10-12-18-12-21-9-19-10-26-7-24-6-31-2-15-1-13v-48l3-26 6-31 7-26 10-26 11-23 15-25 11-15 9-11 11-12 14-14 22-18 15-10 18-10 19-9 36-12 20-4z" fill="#998A82"/>
<path transform="translate(1081,97)" d="m0 0h338v96l-114 1v468l-1 1h-109l-1-469h-113z" fill="#998A82"/>
<path transform="translate(820,416)" d="m0 0h37l24 2 19 4 15 5 10 6 10 9 7 10 4 8 3 11 1 7v30l-3 16-5 13-8 11-5 5-8 6-16 8-22 4-16 2-21 1h-22l-6-2v-155z" fill="#FEFEFE"/>
<path transform="translate(818,186)" d="m0 0h29l16 2 15 5 11 7 10 10 7 14 4 15 1 9v16l-2 19-4 15-6 11-5 6-11 8-12 5-18 3-13 1h-22z" fill="#FEFEFE"/>
<path transform="translate(1110,809)" d="m0 0h12l15 4 12 7 9 8 6 9 6 14 2 9v17l-3 14-8 16-9 10-9 6-10 4-9 2h-16l-15-4-11-6-10-10-6-10-5-14-1-7v-18l4-15 7-12 9-10 7-6 11-5z" fill="#FEFEFE"/>
<path transform="translate(1292,809)" d="m0 0 9 1 10 12 11 15 12 16 14 19 10 13 2 2v-73l2-1 9-1h9l3 2v113l-3 2h-12l-5-4-12-16-10-13-14-19-11-15-7-10-3-2 1 75-1 1h-20l-1-1v-98l1-16z" fill="#FEFEFE"/>
<path transform="translate(1122 1e3)" d="m0 0h10l12 3 10 5 5 4 6 9 5 10 2 7v18l-4 12-5 9-9 9-6 4-6 3-6 1h-14l-9-2-9-5-10-9-5-8-4-13-1-5 1-15 5-13 6-9 5-6 16-8z" fill="#FEFEFE"/>
<path transform="translate(1752 1e3)" d="m0 0 12 1 14 5 10 9 6 10 4 11v22l-3 10-6 10-8 8-13 7-6 1h-14l-8-2-8-4-12-11-4-7-4-13-1-14 2-12 7-13 9-10 10-5 6-2z" fill="#FEFEFE"/>
<path transform="translate(1276 1e3)" d="m0 0h8l12 3 12 6 7 7 7 14 2 7 1 12-3 16-6 12-5 6-11 7-7 3-6 1h-12l-9-2-9-5-10-9-6-10-4-16v-10l3-12 7-13 8-9 10-5z" fill="#FEFEFE"/>
<path transform="translate(1192,813)" d="m0 0h41l9 3 9 6 6 8 2 5v21l-3 9-7 8-9 6h-2l7 11 7 10 16 24v2h-27l-7-10-16-29-4-4 1 21v21l-1 1h-21l-2-2v-110z" fill="#FEFEFE"/>
<path transform="translate(755,809)" d="m0 0h10l5 3 5 12 10 28 11 30 10 26 5 14v4h-23l-4-8-5-15-40-1-2 9-4 14-1 1h-25l1-4 8-19 15-40 10-27 10-26z" fill="#FEFEFE"/>
<path transform="translate(674,812)" d="m0 0h19l5 1-2 5-14 17-13 15-10 13-1 4 13 17 10 13 15 20 5 7v2h-28l-6-7-14-20-10-15-5-6-2-1 1 39-1 10h-21l-1-12v-76l1-25h21l1 1v45l5-5 14-20 13-18z" fill="#FEFEFE"/>
<path transform="translate(1024,812)" d="m0 0h13l9 1-2 5-7 9-12 14-9 11-10 12 1 4 12 15 14 19 15 20 1 4h-28l-13-17-16-24-4-7-2-1v48l-1 1h-21l-1-1v-111l1-1h21v46l3-1 9-14 13-18 9-12z" fill="#FEFEFE"/>
<path transform="translate(857,809)" d="m0 0h7l15 4 10 6 1 1v7l-7 9-2 1-14-8h-6l-6 4-4 5-1 5 3 5 6 4 20 9 9 7 5 8 2 7v15l-2 9-5 9-4 5-11 6-8 2h-15l-11-4-9-7-6-7 1-7 11-11 4 3 4 7 5 4 6 2 8-1 5-3 4-9-1-8-3-5-30-15-7-8-4-11v-10l4-11 6-9 7-6z" fill="#FEFEFE"/>
<path transform="translate(107 1e3)" d="m0 0h20l11 2 8 5 4 8 1 3v13l-6 9 3 3 6 4 3 8v16l-3 7-5 5-8 5-4 1h-32l-3-2v-84l1-2z" fill="#FEFEFE"/>
<path transform="translate(367 1e3)" d="m0 0h8l5 5 10 13 13 17 13 18 6 8v-56l5-2h12l1 59v30l-5 2h-6l-7-6-28-38-9-12-4-4v57l-2 1h-14l-2-2v-86z" fill="#FEFEFE"/>
<path transform="translate(999 1e3)" d="m0 0 7 1 10 12 12 16 11 15 12 17 1-56 3-2h14l1 3v83l-2 4-2 1h-7l-8-7-9-12-14-19-9-12-8-11-1 2v57h-16l-1-2v-26l1-62z" fill="#FEFEFE"/>
<path transform="translate(1110,832)" d="m0 0h12l10 4 8 7 4 5 4 9 1 6v12l-3 9-3 6-6 8-9 7-8 3h-8l-9-4-9-7-6-9-4-9-1-4v-14l4-11 7-10 9-6z" fill="#EB1A2B"/>
<path transform="translate(1583 1e3)" d="m0 0h10l9 2 11 6 8 7 2 4-1 5-11 6-4-1-6-8-7-3h-12l-8 4-6 9-4 10v11l5 14 7 8 5 3h13l8-5 5-8v-5h-17l-1-1v-10l3-3h35l1 1v10l-3 13-5 9-6 7-9 6-10 3h-15l-10-3-10-7-7-8-5-10-2-7v-22l3-10 6-10 8-9 12-6z" fill="#FEFEFE"/>
<path transform="translate(1374 1e3)" d="m0 0h8l12 3 11 6 7 7 1 6-5 4-9 4-10-10-9-3-11 2-6 4-5 8-3 7-1 5v8l3 10 5 9 7 6 6 2 12-2 5-5 5-6 2-6h-18l-2-3v-7l4-4h34l1 1v9l-3 14-4 8-9 10-12 6-5 1h-15l-9-3-9-5-7-7-8-16-2-8v-14l3-12 8-14 7-7 13-6z" fill="#FEFEFE"/>
<path transform="translate(1647 1e3)" d="m0 0h23l12 2 8 5 5 8 2 6v11l-4 10-8 7-4 2 1 5 6 8 8 12 6 8-1 5h-18l-6-7-12-22-4-5-1 1 1 17v14l-5 2h-11l-1-1v-86z" fill="#FEFEFE"/>
<path transform="translate(908 1e3)" d="m0 0h15l1 1v33l31 1 1-34 2-1h16v89h-18l-1-7v-32h-30l-1 38-1 1h-15l-2-3v-37l1-48z" fill="#FEFEFE"/>
<path transform="translate(176 1e3)" d="m0 0h15l1 12v42l1 11 4 6v2l6 2h7l6-3 4-8 1-4 1-58 4-2h12l1 1v62l-3 12-8 10-9 5-5 1h-16l-8-3-8-6-5-7-3-8-1-6v-57l1-3z" fill="#FEFEFE"/>
<path transform="translate(1817 1e3)" d="m0 0h13l1 2 1 59 2 6 6 7 3 1h7l5-3 4-6 1-4 1-15v-35l1-11 3-1h14l1 4v46l-1 14-3 10-4 6-5 6-8 4-5 1h-15l-9-3-8-7-5-6-3-12v-61z" fill="#FEFEFE"/>
<path transform="translate(1904 1e3)" d="m0 0h21l13 2 8 5 5 8 2 10-1 13-4 8-8 7-5 2-8 1h-11v32l-3 1h-13l-2-2v-85z" fill="#FEFEFE"/>
<path transform="translate(465 1e3)" d="m0 0h39l2 2v13l-1 1h-16l-12-1v19h26l2 5v7l-2 3h-26v24h28l1 2v13l-2 1h-42l-3-2v-86z" fill="#FEFEFE"/>
<path transform="translate(771 1e3)" d="m0 0h39l2 4v9l-1 3h-27v17l26 1 1 1v14l-27 1v23h26l1 1v14l-1 1h-42l-2-1-1-8v-65l1-14z" fill="#FEFEFE"/>
<path transform="translate(612 1e3)" d="m0 0h9l13 4 6 4 1 5-4 6-2 2-7-1-4-3-9 1-5 5 1 6 5 4 16 7 8 7 5 10v13l-4 11-7 8-7 4-5 1h-14l-7-3-8-7-4-5 1-5 5-7 4-1 10 10 4 2 7-1 5-6 1-6-3-7-6-4-14-6-8-7-3-7v-12l3-9 7-8z" fill="#FEFEFE"/>
<path transform="translate(278 1e3)" d="m0 0h9l13 4 8 5-1 6-5 6h-7l-5-4-3-1-7 3-3 1v8l5 5 16 7 9 8 3 6 1 4v12l-3 10-8 9-7 4-5 1h-14l-8-4-9-8-2-3 1-5 5-6 4-1 8 7 7 4 6-1 5-5 1-2v-7l-2-6-5-2-14-6-10-9-3-6v-14l4-8 5-6 8-5z" fill="#FEFEFE"/>
<path transform="translate(544 1e3)" d="m0 0h8l13 4 7 4v6l-4 6-5 1-9-4-7 1-4 2-1 2v6l5 5 15 6 10 9 4 8v17l-5 10-8 8-10 3h-13l-7-3-6-4-6-7v-6l4-5 5-3 4 2 3 5v2l5 2 7 1 6-4 2-5v-7l-4-6-19-8-7-6-4-11v-9l3-9 6-7 6-4z" fill="#FEFEFE"/>
<path transform="translate(865 1e3)" d="m0 0h8l14 3 2 2 1 9v11l-5-1-10-5-9-1-9 3-7 7-4 8-1 5v12l3 10 7 9 8 4h13l11-7 3 1v11l-1 9-7 3-7 1h-15l-10-4-12-9-6-8-5-12-2-10 1-12 4-12 6-11 8-8 14-7z" fill="#FEFEFE"/>
<path transform="translate(928,812)" d="m0 0h7l3 2v112h-22l-1-2v-110l1-1z" fill="#FEFEFE"/>
<path transform="translate(1429 1e3)" d="m0 0h15l4 4 11 22v3l5-5 8-15 4-7 2-2h19l-2 6-13 23-9 15-2 4v39l-4 2h-13l-1-1-1-38-7-14-14-24-4-7v-4z" fill="#FEFEFE"/>
<path transform="translate(1750,1020)" d="m0 0h11l8 4 8 9 4 8v14l-6 12-5 6-8 5-4 1h-7l-8-4-7-7-5-8-2-7v-11l4-10 8-8 5-3z" fill="#EB1A2B"/>
<path transform="translate(1123,1020)" d="m0 0h12l8 5 5 5 5 8 1 3v14l-6 12-6 7-10 5h-7l-8-4-7-6-5-7-2-6v-16l4-9 9-8z" fill="#EB1A2B"/>
<path transform="translate(1276,1020)" d="m0 0h11l8 4 8 9 3 9v13l-4 10-7 8-7 5-4 1h-7l-8-4-8-8-4-9-2-8 1-10 5-10 5-5 4-3z" fill="#EB1A2B"/>
<path transform="translate(716 1e3)" d="m0 0h35l2 1v14l-1 1h-17v73h-15l-2-1-1-9v-62l-16-1-2-7v-6l1-2z" fill="#FEFEFE"/>
<path transform="translate(1192 1e3)" d="m0 0h12l1 2v71h23l2 4v8l-1 3-3 1h-36l-2-1-1-8 1-78z" fill="#FEFEFE"/>
<path transform="translate(328 1e3)" d="m0 0h15l1 1v87l-2 1h-13l-2-2v-85z" fill="#FEFEFE"/>
<path transform="translate(1215,831)" d="m0 0 13 1 6 3 3 7v12l-3 6-4 3-13 4-2-1-1-13v-20z" fill="#EA1B2C"/>
<path transform="translate(758,844)" d="m0 0h2l5 14 8 24v3h-25l-1-4 10-35z" fill="#EB1A2B"/>
<path transform="translate(1916,1020)" d="m0 0h10l6 3 2 4v13l-6 5-11 2-1-1z" fill="#EC1A2B"/>
<path transform="translate(121,1054)" d="m0 0h7l9 3 3 7v7l-3 5-4 3-3 1h-8l-1-1z" fill="#EB1A2B"/>
<path transform="translate(1662,1019)" d="m0 0 10 1 5 4 1 3v11l-4 5-11 4-3-1v-24z" fill="#EB1A2B"/>
<path transform="translate(662,1049)" d="m0 0h21l5 2v10l-3 2h-24l-3-5 1-7z" fill="#FEFEFE"/>
<path transform="translate(121,1019)" d="m0 0 9 1 3 3 1 3v10l-4 5-9 1-1-17z" fill="#EB1A2B"/>
</svg>
