<svg xmlns="http://www.w3.org/2000/svg" xmlns:xlink="http://www.w3.org/1999/xlink" width="124.139" height="32.002" viewBox="0 0 124.139 32.002">
  <defs>
    <clipPath id="clip-path">
      <rect id="Rectangle_7050" data-name="Rectangle 7050" width="124.139" height="32.002" fill="none"/>
    </clipPath>
  </defs>
  <g id="Group_39591" data-name="Group 39591" transform="translate(0 -0.001)">
    <g id="Group_39591-2" data-name="Group 39591" transform="translate(0 0.001)" clip-path="url(#clip-path)">
      <path id="Path_56081" data-name="Path 56081" d="M96.758,15.724A14.758,14.758,0,1,1,82,.965,14.759,14.759,0,0,1,96.758,15.724" transform="translate(26.242 0.376)" fill="#fff"/>
      <path id="Path_56082" data-name="Path 56082" d="M88.265,17.275a5.058,5.058,0,0,0-2.484-.709,5.739,5.739,0,0,0-2.47.7,6.022,6.022,0,0,1-2.661.731,5.482,5.482,0,0,1-2.415-.683,6.029,6.029,0,0,0-2.673-.735,5.865,5.865,0,0,0-2.473.681,6.146,6.146,0,0,1-2.671.72l-.168,0c.11.136.221.27.336.4a6.675,6.675,0,0,0,2.668-.749,5.435,5.435,0,0,1,2.308-.648,5.62,5.62,0,0,1,2.5.7,5.9,5.9,0,0,0,2.584.719,6.409,6.409,0,0,0,2.831-.766,5.325,5.325,0,0,1,2.3-.66,4.678,4.678,0,0,1,2.3.665,5.515,5.515,0,0,0,2.753.765c.118-.135.235-.275.349-.416-.111.008-.217.013-.331.013a5.2,5.2,0,0,1-2.589-.72" transform="translate(27.415 6.464)" fill="#887369"/>
      <path id="Path_56083" data-name="Path 56083" d="M85.6,17.116a5.725,5.725,0,0,0-2.469.7,6.051,6.051,0,0,1-2.661.73,5.5,5.5,0,0,1-2.416-.681,6.006,6.006,0,0,0-2.673-.738,5.847,5.847,0,0,0-2.473.684,6.837,6.837,0,0,1-2.2.692c.115.122.231.245.35.361a7.883,7.883,0,0,0,2.01-.685,5.426,5.426,0,0,1,2.308-.648,5.6,5.6,0,0,1,2.5.7,5.881,5.881,0,0,0,2.586.717,6.384,6.384,0,0,0,2.829-.766,5.343,5.343,0,0,1,2.3-.659,4.649,4.649,0,0,1,2.3.666,6,6,0,0,0,2.073.72c.122-.122.245-.246.361-.371a5.386,5.386,0,0,1-2.252-.709,5.073,5.073,0,0,0-2.484-.708" transform="translate(27.596 6.679)" fill="#887369"/>
      <path id="Path_56084" data-name="Path 56084" d="M85.417,17.665a5.743,5.743,0,0,0-2.469.694,6.033,6.033,0,0,1-2.661.731,5.465,5.465,0,0,1-2.416-.683,6.042,6.042,0,0,0-2.673-.737,5.847,5.847,0,0,0-2.473.684,8.753,8.753,0,0,1-1.543.58c.115.11.235.215.355.324a10.9,10.9,0,0,0,1.354-.535,5.426,5.426,0,0,1,2.308-.648,5.6,5.6,0,0,1,2.5.7,5.863,5.863,0,0,0,2.586.72,6.384,6.384,0,0,0,2.829-.767,5.343,5.343,0,0,1,2.3-.659,4.664,4.664,0,0,1,2.3.666,7.612,7.612,0,0,0,1.392.584l.368-.328a6.267,6.267,0,0,1-1.578-.617,5.058,5.058,0,0,0-2.484-.708" transform="translate(27.779 6.893)" fill="#887369"/>
      <path id="Path_56085" data-name="Path 56085" d="M85.237,18.215a5.706,5.706,0,0,0-2.469.7,6.051,6.051,0,0,1-2.661.728,5.482,5.482,0,0,1-2.416-.681,6.005,6.005,0,0,0-2.673-.735,5.826,5.826,0,0,0-2.473.683c-.293.132-.592.266-.9.381.12.1.242.195.366.291.239-.1.471-.2.7-.3a5.446,5.446,0,0,1,2.308-.648,5.6,5.6,0,0,1,2.5.7,5.863,5.863,0,0,0,2.586.719,6.384,6.384,0,0,0,2.829-.766,5.305,5.305,0,0,1,2.3-.659,4.663,4.663,0,0,1,2.3.665c.236.121.475.239.735.349.121-.092.243-.189.364-.286a9.324,9.324,0,0,1-.918-.421,5.073,5.073,0,0,0-2.484-.708" transform="translate(27.96 7.108)" fill="#887369"/>
      <path id="Path_56086" data-name="Path 56086" d="M85.056,18.764a5.725,5.725,0,0,0-2.469.7,6.069,6.069,0,0,1-2.661.728,5.482,5.482,0,0,1-2.416-.681,6.005,6.005,0,0,0-2.673-.735,5.846,5.846,0,0,0-2.473.683c-.086.038-.172.078-.257.114.127.093.254.184.382.268a.174.174,0,0,0,.04-.015,5.446,5.446,0,0,1,2.308-.648,5.623,5.623,0,0,1,2.5.7,5.863,5.863,0,0,0,2.586.72,6.4,6.4,0,0,0,2.829-.767,5.342,5.342,0,0,1,2.3-.658,4.663,4.663,0,0,1,2.3.663l.089.044c.128-.085.252-.172.378-.261l-.285-.142a5.073,5.073,0,0,0-2.484-.708" transform="translate(28.14 7.322)" fill="#887369"/>
      <path id="Path_56087" data-name="Path 56087" d="M82.4,20.008a6.05,6.05,0,0,1-2.661.727,5.463,5.463,0,0,1-2.413-.678,6.014,6.014,0,0,0-2.675-.737,5.088,5.088,0,0,0-2.055.495c.14.092.281.177.425.26a4.286,4.286,0,0,1,1.629-.352,5.622,5.622,0,0,1,2.5.7,5.892,5.892,0,0,0,2.586.717,6.384,6.384,0,0,0,2.829-.766,5.343,5.343,0,0,1,2.3-.659,3.984,3.984,0,0,1,1.706.377c.14-.083.278-.165.416-.253a4.614,4.614,0,0,0-2.122-.526,5.719,5.719,0,0,0-2.468.7" transform="translate(28.33 7.536)" fill="#887369"/>
      <path id="Path_56088" data-name="Path 56088" d="M82.274,0a16,16,0,1,0,16,16,16,16,0,0,0-16-16m0,29.45A13.448,13.448,0,1,1,95.721,16,13.447,13.447,0,0,1,82.274,29.45" transform="translate(25.863 -0.001)" fill="#e71618"/>
      <path id="Path_56089" data-name="Path 56089" d="M85.1,8.7a2.581,2.581,0,0,1-.89,1.246c-.624.5-4.762,3.034-5.232,3.617a3.446,3.446,0,0,0-.544,2.1l0,4.865h.645V19.267a2.578,2.578,0,0,1,.752-1.635,39.263,39.263,0,0,1,4.133-2.957,3.1,3.1,0,0,0,1.151-2.806V8.545Z" transform="translate(30.609 3.334)" fill="#009b3b"/>
      <path id="Path_56090" data-name="Path 56090" d="M78.759,15.126c.457-.576,4.727-3.181,5.339-3.679a3.074,3.074,0,0,0,1.328-2.223V3.775a3.466,3.466,0,0,1-.983,2.077c-.627.822-3.5,2.376-4.919,3.373a3.708,3.708,0,0,0-1.91,3.217v9.953h.637V17.2a3.319,3.319,0,0,1,.509-2.069" transform="translate(30.289 1.473)" fill="#009b3b"/>
      <path id="Path_56091" data-name="Path 56091" d="M77.582,9.48a50.8,50.8,0,0,1-4.265-3.563,3.749,3.749,0,0,1-1-2.109V8.869a3.785,3.785,0,0,0,1.609,2.949c1.262.922,3.041,2.262,3.574,2.8A4.009,4.009,0,0,1,78.536,17.5v4.883h.63V12.647A3.206,3.206,0,0,0,77.582,9.48" transform="translate(28.224 1.485)" fill="#009b3b"/>
      <path id="Path_56092" data-name="Path 56092" d="M0,3.29H7.88L7.7,12.941H7.88A8.7,8.7,0,0,1,9,10.433L12.9,3.29H21.72L14.756,14.12l7.7,11.422H13.074L9.238,18.814a9.983,9.983,0,0,1-1.358-2.6H7.7l.177,9.326H0Z" transform="translate(0 1.283)" fill="#fff"/>
      <path id="Path_56093" data-name="Path 56093" d="M17.195,3.29h5.4c4.129,0,6.668,1.622,6.668,6.052a5.074,5.074,0,0,1-1.949,4.307c2.629.471,3.807,3.127,3.807,5.578,0,4.37-3.068,6.316-7.111,6.316H17.195Zm4.336,9.266h.532c2.123,0,3.156-.619,3.156-2.922,0-2.27-1.3-2.861-3.127-2.861h-.562Zm0,9.5h.915c2.333,0,4.339-.3,4.339-3.188s-2.362-3.01-4.545-3.01h-.709Z" transform="translate(6.711 1.283)" fill="#fff"/>
      <path id="Path_56094" data-name="Path 56094" d="M42.831,23.5H38.757V22.169H38.7a5.015,5.015,0,0,1-3.926,1.8c-4.25,0-6.669-3.869-6.669-7.794,0-3.837,2.45-7.644,6.609-7.644a5.362,5.362,0,0,1,4.043,1.83V9.006h4.073Zm-3.659-7.261c0-1.946-1.329-4.041-3.452-4.041s-3.421,2.1-3.421,4.041,1.294,4.073,3.421,4.073,3.452-2.124,3.452-4.073" transform="translate(10.968 3.329)" fill="#fff"/>
      <path id="Path_56095" data-name="Path 56095" d="M44.974,10.333h.058a4.326,4.326,0,0,1,3.777-1.8c3.9,0,5.017,2.746,5.017,6.11V23.5H49.694V15.824c0-1.742.09-3.986-2.242-3.986-2.45,0-2.477,2.746-2.477,4.489V23.5H40.839V9.006h4.135Z" transform="translate(15.938 3.329)" fill="#fff"/>
      <path id="Path_56096" data-name="Path 56096" d="M56.434,17.143H56.5l4.338-5.312H66.2L60.1,18.205l6.58,8.116h-5.43L56.5,20.153h-.061v6.169H52.3V1.3h4.132Z" transform="translate(20.412 0.505)" fill="#fff"/>
    </g>
  </g>
</svg>
