<svg
    width="24"
    height="36"
    viewBox="0 0 24 36"
    fill="none"
    xmlns="http://www.w3.org/2000/svg"
>
<mask
    id="mask0_40_1849"
    maskUnits="userSpaceOnUse"
    x="0"
    y="6"
    width="24"
    height="24"
>
<rect
    x="24"
    y="30"
    width="24"
    height="24"
    transform="rotate(-180 24 30)"
    fill="#D9D9D9"
/>
</mask>
<g mask="url(#mask0_40_1849)">
<path
    d="M11.9992 19.2266L15.8992 15.3266C16.0826 15.1432 16.3159 15.0516 16.5992 15.0516C16.8826 15.0516 17.1159 15.1432 17.2992 15.3266C17.4826 15.5099 17.5742 15.7432 17.5742 16.0266C17.5742 16.3099 17.4826 16.5432 17.2992 16.7266L12.6992 21.3266C12.5992 21.4266 12.4909 21.4974 12.3742 21.5391C12.2576 21.5807 12.1326 21.6016 11.9992 21.6016C11.8659 21.6016 11.7409 21.5807 11.6242 21.5391C11.5076 21.4974 11.3992 21.4266 11.2992 21.3266L6.69922 16.7266C6.51589 16.5432 6.42422 16.3099 6.42422 16.0266C6.42422 15.7432 6.51589 15.5099 6.69922 15.3266C6.88255 15.1432 7.11588 15.0516 7.39922 15.0516C7.68255 15.0516 7.91588 15.1432 8.09922 15.3266L11.9992 19.2266Z"
    fill="#1C1B1F"
/>
</g>
</svg>