<svg
    width="24"
    height="36"
    viewBox="0 0 24 36"
    fill="none"
    xmlns="http://www.w3.org/2000/svg"
>
<mask
    id="mask0_40_1849"
    maskUnits="userSpaceOnUse"
    x="0"
    y="6"
    width="24"
    height="24"
>
<rect
    y="6"
    width="24"
    height="24"
    fill="#D9D9D9"
/>
</mask>
<g mask="url(#mask0_40_1849)">
<path
    d="M12.0008 16.7734L8.10078 20.6734C7.91745 20.8568 7.68411 20.9484 7.40078 20.9484C7.11745 20.9484 6.88411 20.8568 6.70078 20.6734C6.51745 20.4901 6.42578 20.2568 6.42578 19.9734C6.42578 19.6901 6.51745 19.4568 6.70078 19.2734L11.3008 14.6734C11.4008 14.5734 11.5091 14.5026 11.6258 14.4609C11.7424 14.4193 11.8674 14.3984 12.0008 14.3984C12.1341 14.3984 12.2591 14.4193 12.3758 14.4609C12.4924 14.5026 12.6008 14.5734 12.7008 14.6734L17.3008 19.2734C17.4841 19.4568 17.5758 19.6901 17.5758 19.9734C17.5758 20.2568 17.4841 20.4901 17.3008 20.6734C17.1174 20.8568 16.8841 20.9484 16.6008 20.9484C16.3174 20.9484 16.0841 20.8568 15.9008 20.6734L12.0008 16.7734Z"
    fill="#1C1B1F"
/>
</g>
</svg>