<svg width="25" height="24" viewBox="0 0 25 24" fill="none" xmlns="http://www.w3.org/2000/svg">
<mask id="mask0_40_1851" style="mask-type:alpha" maskUnits="userSpaceOnUse" x="0" y="0" width="25" height="24">
<rect x="0.400146" y="24" width="24" height="24" transform="rotate(-90 0.400146 24)" fill="#D9D9D9"/>
</mask>
<g mask="url(#mask0_40_1851)">
<path d="M11.1736 11.9992L15.0736 15.8992C15.2569 16.0826 15.3486 16.3159 15.3486 16.5992C15.3486 16.8826 15.2569 17.1159 15.0736 17.2992C14.8903 17.4826 14.6569 17.5742 14.3736 17.5742C14.0903 17.5742 13.8569 17.4826 13.6736 17.2992L9.07358 12.6992C8.97358 12.5992 8.90275 12.4909 8.86108 12.3742C8.81942 12.2576 8.79858 12.1326 8.79858 11.9992C8.79858 11.8659 8.81942 11.7409 8.86108 11.6242C8.90275 11.5076 8.97358 11.3992 9.07358 11.2992L13.6736 6.69922C13.8569 6.51589 14.0903 6.42422 14.3736 6.42422C14.6569 6.42422 14.8903 6.51589 15.0736 6.69922C15.2569 6.88255 15.3486 7.11588 15.3486 7.39922C15.3486 7.68255 15.2569 7.91588 15.0736 8.09922L11.1736 11.9992Z" fill="#1C1B1F"/>
</g>
</svg>
