<svg
    width="24"
    height="24"
    viewBox="0 0 24 24"
    fill="none"
    xmlns="http://www.w3.org/2000/svg"
>
<path
    d="M10 10C10.5128 10 10.9355 10.386 10.9933 10.8834L11 11V16C11 16.5523 10.5523 17 10 17C9.48716 17 9.06449 16.614 9.00673 16.1166L9 16V11C9 10.4477 9.44772 10 10 10Z"
    fill="#8A8A8A"
/>
<path
    d="M14.9933 10.8834C14.9355 10.386 14.5128 10 14 10C13.4477 10 13 10.4477 13 11V16L13.0067 16.1166C13.0645 16.614 13.4872 17 14 17C14.5523 17 15 16.5523 15 16V11L14.9933 10.8834Z"
    fill="#8A8A8A"
/>
<path
    fillRule="evenodd"
    clipRule="evenodd"
    d="M5 7.5H4C3.44772 7.5 3 7.05228 3 6.5C3 5.98716 3.38604 5.56449 3.88338 5.50673L4 5.5H7.57143V4.5C7.57143 3.14171 8.7204 2.08413 10.117 2.00478L10.2857 2H13.7143C15.1293 2 16.3326 3.00535 16.4231 4.33849L16.4286 4.5V5.5H20C20.5523 5.5 21 5.94772 21 6.5C21 7.01284 20.614 7.43551 20.1166 7.49327L20 7.5H19V19.2C19 20.6789 17.8835 21.906 16.4522 21.9948L16.2857 22H7.71429C6.25996 22 5.08961 20.8277 5.00491 19.3695L5 19.2V7.5ZM17 7.5H7V19.2C7 19.6147 7.27814 19.9413 7.61972 19.9929L7.71429 20H16.2857C16.6371 20 16.9445 19.708 16.9933 19.3108L17 19.2V7.5ZM14.4286 5.5V4.5C14.4286 4.27797 14.187 4.04641 13.826 4.00614L13.7143 4H10.2857C9.90209 4 9.62565 4.21138 9.57855 4.43331L9.57143 4.5V5.5H14.4286Z"
    fill="#8A8A8A"
/>
</svg>