<svg width="25" height="24" viewBox="0 0 25 24" fill="none" xmlns="http://www.w3.org/2000/svg">
<g clip-path="url(#clip0_40_1851)">
<mask id="mask0_40_1851" style="mask-type:alpha" maskUnits="userSpaceOnUse" x="0" y="0" width="25" height="24">
<rect x="24.4001" width="24" height="24" transform="rotate(90 24.4001 0)" fill="#D9D9D9"/>
</mask>
<g mask="url(#mask0_40_1851)">
<path d="M13.6267 12.0008L9.72671 8.10078C9.54338 7.91745 9.45171 7.68411 9.45171 7.40078C9.45171 7.11745 9.54338 6.88411 9.72671 6.70078C9.91004 6.51745 10.1434 6.42578 10.4267 6.42578C10.71 6.42578 10.9434 6.51745 11.1267 6.70078L15.7267 11.3008C15.8267 11.4008 15.8975 11.5091 15.9392 11.6258C15.9809 11.7424 16.0017 11.8674 16.0017 12.0008C16.0017 12.1341 15.9809 12.2591 15.9392 12.3758C15.8975 12.4924 15.8267 12.6008 15.7267 12.7008L11.1267 17.3008C10.9434 17.4841 10.71 17.5758 10.4267 17.5758C10.1434 17.5758 9.91004 17.4841 9.72671 17.3008C9.54338 17.1174 9.45171 16.8841 9.45171 16.6008C9.45171 16.3174 9.54338 16.0841 9.72671 15.9008L13.6267 12.0008Z" fill="#1C1B1F"/>
</g>
</g>
<defs>
<clipPath id="clip0_40_1851">
<rect width="24" height="24" fill="white" transform="matrix(0 1 -1 0 24.4001 0)"/>
</clipPath>
</defs>
</svg>
