<svg
    width="24"
    height="24"
    viewBox="0 0 24 24"
    fill="none"
    xmlns="http://www.w3.org/2000/svg"
>
<mask
    id="mask0_40_537"
    maskUnits="userSpaceOnUse"
    x="0"
    y="0"
    width="24"
    height="24"
>
<rect width="24" height="24" fill="#D9D9D9" />
</mask>
<g mask="url(#mask0_40_537)">
<path
    d="M9.825 20.6969C8.10833 20.2135 6.70833 19.2677 5.625 17.8594C4.54167 16.451 4 14.8302 4 12.9969C4 12.0469 4.15833 11.1427 4.475 10.2844C4.79167 9.42604 5.24167 8.63854 5.825 7.92188C6.00833 7.72188 6.23333 7.61771 6.5 7.60938C6.76667 7.60104 7.00833 7.70521 7.225 7.92188C7.40833 8.10521 7.50417 8.33021 7.5125 8.59688C7.52083 8.86354 7.43333 9.11354 7.25 9.34688C6.85 9.86354 6.54167 10.4302 6.325 11.0469C6.10833 11.6635 6 12.3135 6 12.9969C6 14.3469 6.39583 15.551 7.1875 16.6094C7.97917 17.6677 9 18.3885 10.25 18.7719C10.4667 18.8385 10.6458 18.9635 10.7875 19.1469C10.9292 19.3302 11 19.5302 11 19.7469C11 20.0802 10.8833 20.3427 10.65 20.5344C10.4167 20.726 10.1417 20.7802 9.825 20.6969ZM14.175 20.6969C13.8583 20.7802 13.5833 20.7219 13.35 20.5219C13.1167 20.3219 13 20.0552 13 19.7219C13 19.5219 13.0708 19.3302 13.2125 19.1469C13.3542 18.9635 13.5333 18.8385 13.75 18.7719C15 18.3719 16.0208 17.6469 16.8125 16.5969C17.6042 15.5469 18 14.3469 18 12.9969C18 11.3302 17.4167 9.91354 16.25 8.74688C15.0833 7.58021 13.6667 6.99688 12 6.99688H11.925L12.325 7.39688C12.5083 7.58021 12.6 7.81354 12.6 8.09688C12.6 8.38021 12.5083 8.61354 12.325 8.79688C12.1417 8.98021 11.9083 9.07188 11.625 9.07188C11.3417 9.07188 11.1083 8.98021 10.925 8.79688L8.825 6.69688C8.725 6.59688 8.65417 6.48854 8.6125 6.37188C8.57083 6.25521 8.55 6.13021 8.55 5.99688C8.55 5.86354 8.57083 5.73854 8.6125 5.62188C8.65417 5.50521 8.725 5.39688 8.825 5.29688L10.925 3.19688C11.1083 3.01354 11.3417 2.92188 11.625 2.92188C11.9083 2.92188 12.1417 3.01354 12.325 3.19688C12.5083 3.38021 12.6 3.61354 12.6 3.89688C12.6 4.18021 12.5083 4.41354 12.325 4.59688L11.925 4.99688H12C14.2333 4.99688 16.125 5.77188 17.675 7.32188C19.225 8.87188 20 10.7635 20 12.9969C20 14.8135 19.4583 16.4302 18.375 17.8469C17.2917 19.2635 15.8917 20.2135 14.175 20.6969Z"
    fill="#8A8A8A"
/>
</g>
</svg>