<svg
    width="40"
    height="40"
    viewBox="0 0 40 40"
    fill="none"
    xmlns="http://www.w3.org/2000/svg"
>
<rect
    width="40"
    height="40"
    rx="20"
    fill="#E6F2EF"
/>
<path
    d="M23.7134 20.7093C24.6986 19.9384 25.4178 18.8813 25.7708 17.685C26.1237 16.4887 26.093 15.2128 25.6829 14.0346C25.2727 12.8565 24.5036 11.8348 23.4823 11.1117C22.4611 10.3886 21.2387 10 19.9851 10C18.7315 10 17.509 10.3886 16.4878 11.1117C15.4666 11.8348 14.6975 12.8565 14.2873 14.0346C13.8772 15.2128 13.8464 16.4887 14.1994 17.685C14.5524 18.8813 15.2715 19.9384 16.2568 20.7093C14.5686 21.382 13.0955 22.4976 11.9947 23.9374C10.8939 25.3771 10.2066 27.0869 10.0061 28.8846C9.99154 29.0159 10.0032 29.1487 10.0403 29.2754C10.0773 29.4022 10.1392 29.5205 10.2222 29.6235C10.39 29.8316 10.6339 29.9648 10.9005 29.994C11.167 30.0231 11.4342 29.9458 11.6434 29.779C11.8526 29.6122 11.9866 29.3695 12.0159 29.1045C12.2366 27.1508 13.1733 25.3465 14.6471 24.0362C16.1209 22.7259 18.0284 22.0016 20.0052 22.0016C21.982 22.0016 23.8895 22.7259 25.3633 24.0362C26.8371 25.3465 27.7738 27.1508 27.9944 29.1045C28.0218 29.3501 28.1396 29.5769 28.3252 29.7411C28.5108 29.9054 28.7509 29.9955 28.9994 29.994H29.1099C29.3734 29.9638 29.6141 29.8314 29.7798 29.6254C29.9454 29.4195 30.0225 29.1568 29.9943 28.8946C29.7928 27.0918 29.1018 25.3776 27.9953 23.9357C26.8888 22.4937 25.4087 21.3784 23.7134 20.7093ZM19.9851 19.9997C19.1901 19.9997 18.4129 19.7653 17.7518 19.326C17.0908 18.8867 16.5756 18.2624 16.2713 17.5319C15.9671 16.8014 15.8875 15.9976 16.0426 15.2221C16.1977 14.4466 16.5805 13.7343 17.1427 13.1752C17.7049 12.6161 18.4211 12.2354 19.2009 12.0812C19.9806 11.9269 20.7889 12.0061 21.5234 12.3086C22.2579 12.6112 22.8857 13.1236 23.3274 13.781C23.7691 14.4385 24.0048 15.2114 24.0048 16.002C24.0048 17.0623 23.5813 18.0791 22.8275 18.8288C22.0736 19.5785 21.0512 19.9997 19.9851 19.9997Z"
    fill="#68879A"
/>
</svg>
